<svg width="38" height="38" viewBox="0 0 38 38" fill="none" xmlns="http://www.w3.org/2000/svg">
<path d="M19 0C15.0664 0 11.875 3.19141 11.875 7.125V19C11.875 22.9336 15.0664 26.125 19 26.125C22.9336 26.125 26.125 22.9336 26.125 19V7.125C26.125 3.19141 22.9336 0 19 0ZM9.5 16.0312C9.5 15.0441 8.70586 14.25 7.71875 14.25C6.73164 14.25 5.9375 15.0441 5.9375 16.0312V19C5.9375 25.6129 10.8508 31.0754 17.2188 31.9437V34.4375H13.6562C12.6691 34.4375 11.875 35.2316 11.875 36.2188C11.875 37.2059 12.6691 38 13.6562 38H19H24.3438C25.3309 38 26.125 37.2059 26.125 36.2188C26.125 35.2316 25.3309 34.4375 24.3438 34.4375H20.7812V31.9437C27.1492 31.0754 32.0625 25.6129 32.0625 19V16.0312C32.0625 15.0441 31.2684 14.25 30.2812 14.25C29.2941 14.25 28.5 15.0441 28.5 16.0312V19C28.5 24.2473 24.2473 28.5 19 28.5C13.7527 28.5 9.5 24.2473 9.5 19V16.0312Z" fill="none"/>
</svg>
