<svg width="32" height="25" viewBox="0 0 32 25" xmlns="http://www.w3.org/2000/svg">
<path d="M16 1.33901C15.9999 1.07761 15.9142 0.82193 15.7533 0.603508C15.5925 0.385086 15.3636 0.213466 15.0948 0.109806C14.8261 0.00614568 14.5292 -0.0250224 14.2408 0.0201441C13.9525 0.0653107 13.6852 0.184837 13.472 0.363988L5.40601 7.14273H2.33401C2.031 7.14262 1.73505 7.22446 1.48515 7.37747C1.23524 7.53048 1.0431 7.74747 0.934011 7.99989C0.314495 9.43565 -0.00216728 10.9614 1.11636e-05 12.5C1.11636e-05 14.084 0.330011 15.6019 0.93601 17.0001C1.15801 17.518 1.71601 17.8573 2.33601 17.8573H5.40601L13.472 24.636C13.6852 24.8152 13.9525 24.9347 14.2408 24.9799C14.5292 25.025 14.8261 24.9939 15.0948 24.8902C15.3636 24.7865 15.5925 24.6149 15.7533 24.3965C15.9142 24.1781 15.9999 23.9224 16 23.661V1.33901ZM27.9 3.6605C27.617 3.41665 27.238 3.28181 26.8447 3.28502C26.4514 3.28824 26.0752 3.42925 25.7973 3.67769C25.5193 3.92613 25.3617 4.26212 25.3585 4.61328C25.3552 4.96445 25.5066 5.3027 25.78 5.55519C27.8428 7.39709 29.0016 9.89521 29.0016 12.5C29.0016 15.1048 27.8428 17.6029 25.78 19.4448C25.515 19.6987 25.3708 20.0345 25.3776 20.3815C25.3845 20.7285 25.5419 21.0595 25.8167 21.3049C26.0916 21.5503 26.4623 21.6908 26.8509 21.697C27.2395 21.7031 27.6156 21.5743 27.9 21.3377C30.5252 18.9935 32 15.8142 32 12.4991C32 9.18404 30.5252 6.00472 27.9 3.6605Z"/>
<path d="M23.6836 6.99027C23.391 6.72352 22.999 6.57582 22.592 6.57897C22.185 6.58212 21.7957 6.73588 21.5077 7.00713C21.2198 7.27837 21.0564 7.64541 21.0527 8.02917C21.049 8.41294 21.2052 8.78273 21.4878 9.05891C21.9684 9.51197 22.3496 10.0499 22.6097 10.6419C22.8698 11.2339 23.0037 11.8684 23.0037 12.5092C23.0037 13.15 22.8698 13.7846 22.6097 14.3766C22.3496 14.9686 21.9684 15.5065 21.4878 15.9596C21.2136 16.237 21.0644 16.604 21.0715 16.9832C21.0786 17.3624 21.2415 17.7242 21.5259 17.9923C21.8102 18.2605 22.1939 18.4141 22.596 18.4208C22.9981 18.4275 23.3873 18.2867 23.6815 18.0282C25.2334 16.5643 26.1052 14.5791 26.1052 12.5092C26.1052 10.4393 25.2334 8.45414 23.6815 6.99027H23.6836Z"/>
</svg>
